<?xml version="1.0" encoding="UTF-8" standalone="no"?>
<!DOCTYPE svg PUBLIC "-//W3C//DTD SVG 1.1//EN" "http://www.w3.org/Graphics/SVG/1.1/DTD/svg11.dtd">
<svg version="1.1" xmlns="http://www.w3.org/2000/svg" xmlns:xlink="http://www.w3.org/1999/xlink" preserveAspectRatio="xMidYMid meet" viewBox="0 0 640 640" width="640" height="640"><defs><path d="M489.78 131.56C500.82 131.56 509.78 140.51 509.78 151.56C509.78 219.11 509.78 401.78 509.78 469.33C509.78 480.38 500.82 489.33 489.78 489.33C410 489.33 190.67 489.33 110.89 489.33C99.84 489.33 90.89 480.38 90.89 469.33C90.89 401.78 90.89 219.11 90.89 151.56C90.89 140.51 99.84 131.56 110.89 131.56C190.67 131.56 410 131.56 489.78 131.56Z" id="bpoEISHKz"></path><path d="M489.78 207.11C500.82 207.11 509.78 216.07 509.78 227.11C509.78 279.56 509.78 416.89 509.78 469.33C509.78 480.38 500.82 489.33 489.78 489.33C410 489.33 190.67 489.33 110.89 489.33C99.84 489.33 90.89 480.38 90.89 469.33C90.89 416.89 90.89 279.56 90.89 227.11C90.89 216.07 99.84 207.11 110.89 207.11C190.67 207.11 410 207.11 489.78 207.11Z" id="a2mABxCV1M"></path><path d="M104.78 313.22L495.89 313.22L495.89 383.22L104.78 383.22L104.78 313.22Z" id="d24htEgnSu"></path><path d="M104.78 313.22L160.65 313.22L160.65 383.22L104.78 383.22L104.78 313.22Z" id="e1lj1wOvSS"></path><path d="M160.65 313.22L216.52 313.22L216.52 383.22L160.65 383.22L160.65 313.22Z" id="a2anDAE5Xb"></path><path d="M216.52 313.22L272.39 313.22L272.39 383.22L216.52 383.22L216.52 313.22Z" id="b2R11jphaq"></path><path d="M272.4 313.22L328.27 313.22L328.27 383.22L272.4 383.22L272.4 313.22Z" id="aEatpm50X"></path><path d="M328.27 313.22L384.14 313.22L384.14 383.22L328.27 383.22L328.27 313.22Z" id="adjnxkUd"></path><path d="M384.14 313.22L440.01 313.22L440.01 383.22L384.14 383.22L384.14 313.22Z" id="dxdc405GT"></path><path d="M104.78 409.33L495.89 409.33L495.89 479.33L104.78 479.33L104.78 409.33Z" id="c25YnV0kzB"></path><path d="M104.78 409.33L160.65 409.33L160.65 479.33L104.78 479.33L104.78 409.33Z" id="cPgPZbdeS"></path><path d="M160.65 409.33L216.52 409.33L216.52 479.33L160.65 479.33L160.65 409.33Z" id="c9iAm9S0l"></path><path d="M216.52 409.33L272.39 409.33L272.39 479.33L216.52 479.33L216.52 409.33Z" id="aFVGkLOw6"></path><path d="M272.4 409.33L328.27 409.33L328.27 479.33L272.4 479.33L272.4 409.33Z" id="a1NICj40RD"></path><path d="M328.27 409.33L384.14 409.33L384.14 479.33L328.27 479.33L328.27 409.33Z" id="bmLzj83xI"></path><path d="M384.14 409.33L440.01 409.33L440.01 479.33L384.14 479.33L384.14 409.33Z" id="a2E5bZhZAc"></path><path d="M104.78 221L495.89 221L495.89 291L104.78 291L104.78 221Z" id="fSM3jAwqw"></path><path d="M104.78 221L160.65 221L160.65 291L104.78 291L104.78 221Z" id="a4x9BQOUEB"></path><path d="M160.65 221L216.52 221L216.52 291L160.65 291L160.65 221Z" id="b2fsHxvTJ9"></path><path d="M216.52 221L272.39 221L272.39 291L216.52 291L216.52 221Z" id="fq6aivIBQ"></path><path d="M272.4 221L328.27 221L328.27 291L272.4 291L272.4 221Z" id="b1l8MGQcRf"></path><path d="M328.27 221L384.14 221L384.14 291L328.27 291L328.27 221Z" id="b6f4qIING"></path><path d="M384.14 221L440.01 221L440.01 291L384.14 291L384.14 221Z" id="as8CaEQyx"></path></defs><g><g><g><use xlink:href="#bpoEISHKz" opacity="1" fill="#ffffff" fill-opacity="1"></use><g><use xlink:href="#bpoEISHKz" opacity="1" fill-opacity="0" stroke="#020202" stroke-width="2" stroke-opacity="1"></use></g></g><g><g><use xlink:href="#a2mABxCV1M" opacity="1" fill-opacity="0" stroke="#020202" stroke-width="2" stroke-opacity="1"></use></g></g><g><g><g><use xlink:href="#d24htEgnSu" opacity="1" fill-opacity="0" stroke="#020202" stroke-width="2" stroke-opacity="1"></use></g></g><g><g><use xlink:href="#e1lj1wOvSS" opacity="1" fill-opacity="0" stroke="#020202" stroke-width="2" stroke-opacity="1"></use></g></g><g><g><use xlink:href="#a2anDAE5Xb" opacity="1" fill-opacity="0" stroke="#020202" stroke-width="2" stroke-opacity="1"></use></g></g><g><g><use xlink:href="#b2R11jphaq" opacity="1" fill-opacity="0" stroke="#020202" stroke-width="2" stroke-opacity="1"></use></g></g><g><g><use xlink:href="#aEatpm50X" opacity="1" fill-opacity="0" stroke="#020202" stroke-width="2" stroke-opacity="1"></use></g></g><g><g><use xlink:href="#adjnxkUd" opacity="1" fill-opacity="0" stroke="#020202" stroke-width="2" stroke-opacity="1"></use></g></g><g><g><use xlink:href="#dxdc405GT" opacity="1" fill-opacity="0" stroke="#020202" stroke-width="2" stroke-opacity="1"></use></g></g></g><g><g><g><use xlink:href="#c25YnV0kzB" opacity="1" fill-opacity="0" stroke="#020202" stroke-width="2" stroke-opacity="1"></use></g></g><g><g><use xlink:href="#cPgPZbdeS" opacity="1" fill-opacity="0" stroke="#020202" stroke-width="2" stroke-opacity="1"></use></g></g><g><g><use xlink:href="#c9iAm9S0l" opacity="1" fill-opacity="0" stroke="#020202" stroke-width="2" stroke-opacity="1"></use></g></g><g><g><use xlink:href="#aFVGkLOw6" opacity="1" fill-opacity="0" stroke="#020202" stroke-width="2" stroke-opacity="1"></use></g></g><g><g><use xlink:href="#a1NICj40RD" opacity="1" fill-opacity="0" stroke="#020202" stroke-width="2" stroke-opacity="1"></use></g></g><g><g><use xlink:href="#bmLzj83xI" opacity="1" fill-opacity="0" stroke="#020202" stroke-width="2" stroke-opacity="1"></use></g></g><g><g><use xlink:href="#a2E5bZhZAc" opacity="1" fill-opacity="0" stroke="#020202" stroke-width="2" stroke-opacity="1"></use></g></g></g><g><g><g><use xlink:href="#fSM3jAwqw" opacity="1" fill-opacity="0" stroke="#020202" stroke-width="2" stroke-opacity="1"></use></g></g><g><g><use xlink:href="#a4x9BQOUEB" opacity="1" fill-opacity="0" stroke="#020202" stroke-width="2" stroke-opacity="1"></use></g></g><g><g><use xlink:href="#b2fsHxvTJ9" opacity="1" fill-opacity="0" stroke="#020202" stroke-width="2" stroke-opacity="1"></use></g></g><g><g><use xlink:href="#fq6aivIBQ" opacity="1" fill-opacity="0" stroke="#020202" stroke-width="2" stroke-opacity="1"></use></g></g><g><g><use xlink:href="#b1l8MGQcRf" opacity="1" fill-opacity="0" stroke="#020202" stroke-width="2" stroke-opacity="1"></use></g></g><g><g><use xlink:href="#b6f4qIING" opacity="1" fill-opacity="0" stroke="#020202" stroke-width="2" stroke-opacity="1"></use></g></g><g><g><use xlink:href="#as8CaEQyx" opacity="1" fill-opacity="0" stroke="#020202" stroke-width="2" stroke-opacity="1"></use></g></g></g></g></g></svg>